/* XPM */
static char * arrow1_xpm[] = {
"21 19 4 1",
" 	c #C0C0C0",
".	c #0000FF",
"+	c #FFFFFF",
"@	c #808080",
"                     ",
"                     ",
"                     ",
"        .            ",
"        ..           ",
"        .+.          ",
"        .++.         ",
"        .+++.        ",
"        .++++.       ",
"        .+++++.      ",
"        .++.....     ",
"        .+...        ",
"        .. ..@       ",
"        .  @..       ",
"            ..@      ",
"            @..      ",
"             ..@     ",
"             @..     ",
"              ..     "};
