/* XPM */
static char * 13_xpm[] = {
"21 19 3 1",
" 	c #C0C0C0",
".	c #0000FF",
"+	c #FFFF00",
"                     ",
"                     ",
"          ..         ",
"      .. .++...      ",
"     .++..++.++.     ",
"     .++..++.++. .   ",
"      .++.++.++..+.  ",
"      .++.++.++.++.  ",
"    .. .+++++++.++.  ",
"   .++..++++++++++.  ",
"   .+++.+++++++++.   ",
"    .++++++++++++.   ",
"     .+++++++++++.   ",
"     .++++++++++.    ",
"      .+++++++++.    ",
"       .+++++++.     ",
"        .++++++.     ",
"         .+++++.     ",
"                     "};
